<svg width="924" height="198" viewBox="0 0 924 198" fill="none" xmlns="http://www.w3.org/2000/svg">
<path d="M18.8518 18.9848C37.7945 0.0117608 60.0047 -0.0877121 93.5689 0.0117623C126.96 0.110722 148.846 0.0117628 167.774 18.9848C222.363 73.7044 146.792 197.414 93.5689 197.414C40.3454 197.414 -35.7404 73.6644 18.8518 18.9848Z" fill="url(#paint0_linear_284_1920)"/>
<path d="M59.102 71.1116C62.9401 77.5799 63.6417 87.2958 56.7131 90.2224C51.0696 92.6062 45.2032 90.6568 42.1628 84.3588C39.1225 78.0609 38.6881 65.4652 43.9002 63.5107C49.1123 61.5562 55.7149 65.4034 59.102 71.1116Z" fill="white" stroke="#FDFDFD" stroke-width="1.53034"/>
<path d="M87.3536 54.9739C87.5694 59.5344 83.9593 70.8564 76.278 71.2615C68.2998 71.6823 63.0307 62.5748 63.8994 54.9739C64.7681 47.373 67.889 36.9526 76.278 37.3833C84.3851 37.7994 87.1377 50.4134 87.3536 54.9739Z" fill="white"/>
<path d="M109.07 71.2615C101.573 71.3603 97.5605 61.4889 97.5605 55.8426C97.5605 50.1962 100.605 38.0627 109.07 37.8176C118.041 37.5579 121.232 51.7164 120.798 57.5799C120.363 63.4434 116.107 71.1688 109.07 71.2615Z" fill="white"/>
<path d="M128.833 90.3723C134.346 92.9704 139.615 89.5168 143.383 84.7259C148.67 78.0037 146.423 64.7465 140.56 63.0091C134.696 61.2718 126.19 67.3023 124.272 74.9534C122.746 81.0443 123.152 87.6957 128.833 90.3723Z" fill="white"/>
<path d="M87.3536 54.9739C87.5694 59.5344 83.9593 70.8564 76.278 71.2615C68.2998 71.6823 63.0307 62.5748 63.8994 54.9739C64.7681 47.373 67.889 36.9526 76.278 37.3833C84.3851 37.7994 87.1377 50.4134 87.3536 54.9739Z" stroke="#FDFDFD" stroke-width="1.53034"/>
<path d="M109.07 71.2615C101.573 71.3603 97.5605 61.4889 97.5605 55.8426C97.5605 50.1962 100.605 38.0627 109.07 37.8176C118.041 37.5579 121.232 51.7164 120.798 57.5799C120.363 63.4434 116.107 71.1688 109.07 71.2615Z" stroke="#FDFDFD" stroke-width="1.53034"/>
<path d="M128.833 90.3723C134.346 92.9704 139.615 89.5168 143.383 84.7259C148.67 78.0037 146.423 64.7465 140.56 63.0091C134.696 61.2718 126.19 67.3023 124.272 74.9534C122.746 81.0443 123.152 87.6957 128.833 90.3723Z" stroke="#FDFDFD" stroke-width="1.53034"/>
<path d="M92.0898 79.0924C72.1104 79.9606 57.7773 103.632 52.5652 112.971C47.3531 122.309 54.1248 137.452 65.1609 138.379C70.999 138.87 73.2018 132.825 79.0597 132.733C85.1541 132.637 87.5153 138.442 93.61 138.379C99.547 138.318 101.789 132.764 107.726 132.733C113.742 132.701 114.675 138.379 122.059 138.379C129.443 138.379 140.518 126.435 133.786 112.971C127.054 99.5067 112.069 78.2242 92.0898 79.0924Z" fill="white" stroke="#FDFDFD" stroke-width="1.53034"/>
<path fill-rule="evenodd" clip-rule="evenodd" d="M93.3507 96.4114C91.6603 96.4114 90.29 97.7817 90.29 99.4721V105.593H82.6383C80.9479 105.593 79.5776 106.964 79.5776 108.654C79.5776 110.345 80.9479 111.715 82.6383 111.715H90.29V117.836C90.29 119.527 91.6603 120.897 93.3507 120.897C95.0411 120.897 96.4114 119.527 96.4114 117.836V111.715H102.533C104.223 111.715 105.593 110.345 105.593 108.654C105.593 106.964 104.223 105.593 102.533 105.593H96.4114V99.4721C96.4114 97.7817 95.0411 96.4114 93.3507 96.4114Z" fill="#4874CB"/>
<path d="M295.576 64.4518L271.188 133.207H250.229L225.841 64.4518H243.667L260.709 116.361L277.849 64.4518H295.576ZM354.093 105C354.093 106.567 353.995 108.199 353.799 109.897H315.896C316.157 113.292 317.234 115.904 319.128 117.732C321.087 119.495 323.47 120.377 326.278 120.377C330.457 120.377 333.362 118.614 334.994 115.088H352.82C351.906 118.679 350.241 121.911 347.825 124.784C345.474 127.657 342.503 129.91 338.912 131.542C335.321 133.174 331.305 133.99 326.865 133.99C321.511 133.99 316.745 132.848 312.566 130.563C308.387 128.277 305.122 125.012 302.772 120.768C300.421 116.524 299.246 111.562 299.246 105.881C299.246 100.201 300.388 95.2382 302.674 90.994C305.024 86.7499 308.289 83.4852 312.468 81.1999C316.647 78.9145 321.446 77.7719 326.865 77.7719C332.154 77.7719 336.855 78.8819 340.969 81.1019C345.082 83.3219 348.282 86.4887 350.567 90.6023C352.918 94.7158 354.093 99.515 354.093 105ZM336.953 100.592C336.953 97.7194 335.974 95.4341 334.015 93.7364C332.056 92.0387 329.608 91.1899 326.669 91.1899C323.862 91.1899 321.479 92.0061 319.52 93.6385C317.626 95.2708 316.451 97.5888 315.994 100.592H336.953ZM393.388 119.005V133.207H384.867C378.795 133.207 374.061 131.738 370.666 128.8C367.271 125.796 365.573 120.932 365.573 114.206V92.4632H358.913V78.5554H365.573V65.2353H382.321V78.5554H393.29V92.4632H382.321V114.402C382.321 116.034 382.713 117.21 383.496 117.928C384.28 118.646 385.586 119.005 387.414 119.005H393.388ZM455.116 86.5867C455.116 90.5696 454.202 94.2261 452.374 97.5561C450.546 100.821 447.738 103.465 443.951 105.489C440.164 107.514 435.463 108.526 429.847 108.526H419.465V133.207H402.717V64.4518H429.847C435.332 64.4518 439.968 65.3986 443.755 67.2921C447.542 69.1857 450.382 71.7974 452.276 75.1275C454.169 78.4575 455.116 82.2772 455.116 86.5867ZM428.574 95.2055C431.773 95.2055 434.157 94.4546 435.724 92.9529C437.291 91.4511 438.074 89.329 438.074 86.5867C438.074 83.8443 437.291 81.7222 435.724 80.2204C434.157 78.7187 431.773 77.9678 428.574 77.9678H419.465V95.2055H428.574ZM497.429 77.9678C503.698 77.9678 508.725 80.0572 512.512 84.236C516.299 88.3496 518.193 94.0302 518.193 101.278V133.207H501.543V103.531C501.543 99.8741 500.596 97.0338 498.703 95.0096C496.809 92.9855 494.263 91.9734 491.063 91.9734C487.864 91.9734 485.317 92.9855 483.424 95.0096C481.53 97.0338 480.583 99.8741 480.583 103.531V133.207H463.835V60.73H480.583V85.9011C482.281 83.4852 484.599 81.559 487.537 80.1225C490.475 78.686 493.773 77.9678 497.429 77.9678ZM526.501 105.783C526.501 100.168 527.546 95.2382 529.635 90.994C531.79 86.7499 534.696 83.4852 538.352 81.1999C542.009 78.9145 546.09 77.7719 550.595 77.7719C554.447 77.7719 557.81 78.5554 560.683 80.1225C563.621 81.6896 565.874 83.7463 567.441 86.2928V78.5554H584.189V133.207H567.441V125.47C565.809 128.016 563.523 130.073 560.585 131.64C557.712 133.207 554.349 133.99 550.497 133.99C546.057 133.99 542.009 132.848 538.352 130.563C534.696 128.212 531.79 124.915 529.635 120.67C527.546 116.361 526.501 111.399 526.501 105.783ZM567.441 105.881C567.441 101.702 566.266 98.405 563.915 95.9891C561.63 93.5732 558.822 92.3652 555.492 92.3652C552.162 92.3652 549.322 93.5732 546.971 95.9891C544.686 98.3397 543.543 101.604 543.543 105.783C543.543 109.962 544.686 113.292 546.971 115.773C549.322 118.189 552.162 119.397 555.492 119.397C558.822 119.397 561.63 118.189 563.915 115.773C566.266 113.357 567.441 110.06 567.441 105.881ZM613.053 87.664C615.012 84.6605 617.461 82.3099 620.399 80.6122C623.337 78.8493 626.602 77.9678 630.193 77.9678V95.6952H625.59C621.411 95.6952 618.277 96.6094 616.188 98.4376C614.098 100.201 613.053 103.335 613.053 107.84V133.207H596.305V78.5554H613.053V87.664ZM707.933 77.9678C714.724 77.9678 720.11 80.0246 724.093 84.1381C728.142 88.2517 730.166 93.9649 730.166 101.278V133.207H713.516V103.531C713.516 100.005 712.569 97.2949 710.675 95.4014C708.847 93.4426 706.301 92.4632 703.036 92.4632C699.771 92.4632 697.192 93.4426 695.299 95.4014C693.47 97.2949 692.556 100.005 692.556 103.531V133.207H675.906V103.531C675.906 100.005 674.959 97.2949 673.066 95.4014C671.237 93.4426 668.691 92.4632 665.426 92.4632C662.162 92.4632 659.582 93.4426 657.689 95.4014C655.861 97.2949 654.947 100.005 654.947 103.531V133.207H638.198V78.5554H654.947V85.4113C656.644 83.126 658.864 81.3304 661.607 80.0245C664.349 78.6534 667.45 77.9678 670.911 77.9678C675.025 77.9678 678.681 78.8493 681.88 80.6122C685.145 82.3752 687.692 84.889 689.52 88.1537C691.413 85.1502 693.993 82.7016 697.257 80.8081C700.522 78.9145 704.081 77.9678 707.933 77.9678ZM738.549 105.783C738.549 100.168 739.594 95.2382 741.683 90.994C743.838 86.7499 746.743 83.4852 750.4 81.1999C754.056 78.9145 758.137 77.7719 762.643 77.7719C766.495 77.7719 769.858 78.5554 772.731 80.1225C775.669 81.6896 777.922 83.7463 779.489 86.2928V78.5554H796.237V133.207H779.489V125.47C777.856 128.016 775.571 130.073 772.633 131.64C769.76 133.207 766.397 133.99 762.545 133.99C758.105 133.99 754.056 132.848 750.4 130.563C746.743 128.212 743.838 124.915 741.683 120.67C739.594 116.361 738.549 111.399 738.549 105.783ZM779.489 105.881C779.489 101.702 778.313 98.405 775.963 95.9891C773.677 93.5732 770.87 92.3652 767.54 92.3652C764.21 92.3652 761.369 93.5732 759.019 95.9891C756.734 98.3397 755.591 101.604 755.591 105.783C755.591 109.962 756.734 113.292 759.019 115.773C761.369 118.189 764.21 119.397 767.54 119.397C770.87 119.397 773.677 118.189 775.963 115.773C778.313 113.357 779.489 110.06 779.489 105.881ZM805.023 105.881C805.023 100.201 806.166 95.2382 808.451 90.994C810.802 86.7499 814.034 83.4852 818.147 81.1999C822.326 78.9145 827.093 77.7719 832.447 77.7719C839.303 77.7719 845.016 79.5675 849.587 83.1587C854.223 86.7499 857.259 91.8102 858.695 98.3397H840.87C839.368 94.1608 836.462 92.0714 832.153 92.0714C829.084 92.0714 826.636 93.2793 824.807 95.6952C822.979 98.0458 822.065 101.441 822.065 105.881C822.065 110.321 822.979 113.749 824.807 116.165C826.636 118.516 829.084 119.691 832.153 119.691C836.462 119.691 839.368 117.602 840.87 113.423H858.695C857.259 119.822 854.223 124.849 849.587 128.506C844.951 132.162 839.237 133.99 832.447 133.99C827.093 133.99 822.326 132.848 818.147 130.563C814.034 128.277 810.802 125.012 808.451 120.768C806.166 116.524 805.023 111.562 805.023 105.881ZM923.481 78.5554L889.201 159.162H871.18L883.716 131.346L861.483 78.5554H880.19L892.825 112.737L905.361 78.5554H923.481Z" fill="url(#paint1_linear_284_1920)"/>
<defs>
<linearGradient id="paint0_linear_284_1920" x1="93.3507" y1="0" x2="93.3507" y2="197.414" gradientUnits="userSpaceOnUse">
<stop offset="0.185" stop-color="#17C23D"/>
<stop offset="0.73" stop-color="#1B6A8B"/>
</linearGradient>
<linearGradient id="paint1_linear_284_1920" x1="224.96" y1="98.7069" x2="923.96" y2="98.7069" gradientUnits="userSpaceOnUse">
<stop stop-color="#2DC02A"/>
<stop offset="0.615" stop-color="#258AD3"/>
</linearGradient>
</defs>
</svg>
