<svg width="34" height="25" viewBox="0 0 34 25" fill="none" xmlns="http://www.w3.org/2000/svg">
<path d="M27.75 15.4167V3.08333C27.75 1.3875 26.3625 0 24.6667 0H3.08333C1.3875 0 0 1.3875 0 3.08333V15.4167C0 17.1125 1.3875 18.5 3.08333 18.5H24.6667C26.3625 18.5 27.75 17.1125 27.75 15.4167ZM24.6667 15.4167H3.08333V3.08333H24.6667V15.4167ZM13.875 4.625C11.3158 4.625 9.25 6.69083 9.25 9.25C9.25 11.8092 11.3158 13.875 13.875 13.875C16.4342 13.875 18.5 11.8092 18.5 9.25C18.5 6.69083 16.4342 4.625 13.875 4.625ZM33.9167 4.625V21.5833C33.9167 23.2792 32.5292 24.6667 30.8333 24.6667H4.625C4.625 23.125 4.625 23.2792 4.625 21.5833H30.8333V4.625C32.5292 4.625 32.375 4.625 33.9167 4.625Z" fill="#01A768"/>
</svg>
